{
  "asset": {
    "generator": "Netherlands3D Tile Bake Tool",
    "version": "2.0"
  },
  "scene": 0,
  "scenes": [
    {
      "name": "Scene",
      "nodes": [
        0
      ]
    }
  ],
  "nodes": [
    {
      "mesh": 0,
      "name": "Node-0",
      "scale": [
        1,
        1,
        -1
      ]
    }
  ],
  "meshes": [
    {
      "name": "Submesh-0",
      "primitives": [
        {
          "attributes": {
            "POSITION": 0,
            "NORMAL": 1,
            "TEXCOORD_0": 2
          },
          "indices": 3
        }
      ]
    }
  ],
  "accessors": [
    {
      "bufferView": 0,
      "componentType": 5126,
      "count": 1320,
      "max": [
        500,
        500,
        500
      ],
      "min": [
        -500,
        -500,
        -500
      ],
      "type": "VEC3"
    },
    {
      "bufferView": 1,
      "componentType": 5126,
      "count": 1320,
      "type": "VEC3"
    },
    {
      "bufferView": 2,
      "componentType": 5126,
      "count": 1320,
      "type": "VEC2"
    },
    {
      "bufferView": 3,
      "componentType": 5125,
      "count": 2022,
      "type": "SCALAR"
    }
  ],
  "bufferViews": [
    {
      "buffer": 0,
      "byteLength": 15840,
      "byteOffset": 24
    },
    {
      "buffer": 0,
      "byteLength": 15840,
      "byteOffset": 15864
    },
    {
      "buffer": 0,
      "byteLength": 10560,
      "byteOffset": 31704
    },
    {
      "buffer": 0,
      "byteLength": 8088,
      "byteOffset": 42264
    }
  ],
  "buffers": [
    {
      "byteLength": 50372,
      "uri": "roots_121000_487000.1.bin"
    }
  ]
}